<mxfile host="app.diagrams.net" modified="2021-10-07T09:21:52.856Z" agent="5.0 (Windows NT 10.0; Win64; x64) AppleWebKit/537.36 (KHTML, like Gecko) Chrome/94.0.4606.71 Safari/537.36" etag="tyWUG8sxwpWpY9l2Oq4N" version="14.9.1" type="github">
  <diagram id="C5RBs43oDa-KdzZeNtuy" name="Page-1">
    <mxGraphModel dx="2500" dy="946" grid="1" gridSize="10" guides="1" tooltips="1" connect="1" arrows="1" fold="1" page="1" pageScale="1" pageWidth="827" pageHeight="1169" math="0" shadow="0">
      <root>
        <mxCell id="WIyWlLk6GJQsqaUBKTNV-0" />
        <mxCell id="WIyWlLk6GJQsqaUBKTNV-1" parent="WIyWlLk6GJQsqaUBKTNV-0" />
        <mxCell id="-2eOYRBdpRBfS1CrOmSz-0" value="User" style="swimlane;fontStyle=0;childLayout=stackLayout;horizontal=1;startSize=26;fillColor=none;horizontalStack=0;resizeParent=1;resizeParentMax=0;resizeLast=0;collapsible=1;marginBottom=0;" vertex="1" parent="WIyWlLk6GJQsqaUBKTNV-1">
          <mxGeometry x="-116" y="180" width="140" height="310" as="geometry" />
        </mxCell>
        <mxCell id="-2eOYRBdpRBfS1CrOmSz-1" value="+ id: uuid" style="text;strokeColor=none;fillColor=none;align=left;verticalAlign=top;spacingLeft=4;spacingRight=4;overflow=hidden;rotatable=0;points=[[0,0.5],[1,0.5]];portConstraint=eastwest;" vertex="1" parent="-2eOYRBdpRBfS1CrOmSz-0">
          <mxGeometry y="26" width="140" height="26" as="geometry" />
        </mxCell>
        <mxCell id="-2eOYRBdpRBfS1CrOmSz-2" value="+ name: String" style="text;strokeColor=none;fillColor=none;align=left;verticalAlign=top;spacingLeft=4;spacingRight=4;overflow=hidden;rotatable=0;points=[[0,0.5],[1,0.5]];portConstraint=eastwest;" vertex="1" parent="-2eOYRBdpRBfS1CrOmSz-0">
          <mxGeometry y="52" width="140" height="26" as="geometry" />
        </mxCell>
        <mxCell id="-2eOYRBdpRBfS1CrOmSz-3" value="+ dob: Date&#xa;&#xa;+ address: String&#xa;&#xa;+ phone: String&#xa;&#xa;+ cmt: String&#xa;&#xa;+ experience: Integer&#xa;&#xa;+ language: String&#xa;&#xa;+ certificate: String&#xa;&#xa;+ unitId: uuid&#xa;&#xa;&#xa;&#xa;&#xa;&#xa;&#xa;" style="text;strokeColor=none;fillColor=none;align=left;verticalAlign=top;spacingLeft=4;spacingRight=4;overflow=hidden;rotatable=0;points=[[0,0.5],[1,0.5]];portConstraint=eastwest;" vertex="1" parent="-2eOYRBdpRBfS1CrOmSz-0">
          <mxGeometry y="78" width="140" height="232" as="geometry" />
        </mxCell>
        <mxCell id="-2eOYRBdpRBfS1CrOmSz-4" value="Role" style="swimlane;fontStyle=0;childLayout=stackLayout;horizontal=1;startSize=26;fillColor=none;horizontalStack=0;resizeParent=1;resizeParentMax=0;resizeLast=0;collapsible=1;marginBottom=0;" vertex="1" parent="WIyWlLk6GJQsqaUBKTNV-1">
          <mxGeometry x="284" y="190" width="140" height="78" as="geometry" />
        </mxCell>
        <mxCell id="-2eOYRBdpRBfS1CrOmSz-5" value="+ id: uuid" style="text;strokeColor=none;fillColor=none;align=left;verticalAlign=top;spacingLeft=4;spacingRight=4;overflow=hidden;rotatable=0;points=[[0,0.5],[1,0.5]];portConstraint=eastwest;" vertex="1" parent="-2eOYRBdpRBfS1CrOmSz-4">
          <mxGeometry y="26" width="140" height="26" as="geometry" />
        </mxCell>
        <mxCell id="-2eOYRBdpRBfS1CrOmSz-6" value="+ name: String" style="text;strokeColor=none;fillColor=none;align=left;verticalAlign=top;spacingLeft=4;spacingRight=4;overflow=hidden;rotatable=0;points=[[0,0.5],[1,0.5]];portConstraint=eastwest;" vertex="1" parent="-2eOYRBdpRBfS1CrOmSz-4">
          <mxGeometry y="52" width="140" height="26" as="geometry" />
        </mxCell>
        <mxCell id="-2eOYRBdpRBfS1CrOmSz-8" value="Permision" style="swimlane;fontStyle=0;childLayout=stackLayout;horizontal=1;startSize=26;fillColor=none;horizontalStack=0;resizeParent=1;resizeParentMax=0;resizeLast=0;collapsible=1;marginBottom=0;" vertex="1" parent="WIyWlLk6GJQsqaUBKTNV-1">
          <mxGeometry x="294" y="412" width="140" height="78" as="geometry" />
        </mxCell>
        <mxCell id="-2eOYRBdpRBfS1CrOmSz-9" value="+ id: uuid" style="text;strokeColor=none;fillColor=none;align=left;verticalAlign=top;spacingLeft=4;spacingRight=4;overflow=hidden;rotatable=0;points=[[0,0.5],[1,0.5]];portConstraint=eastwest;" vertex="1" parent="-2eOYRBdpRBfS1CrOmSz-8">
          <mxGeometry y="26" width="140" height="26" as="geometry" />
        </mxCell>
        <mxCell id="-2eOYRBdpRBfS1CrOmSz-10" value="+ name: String" style="text;strokeColor=none;fillColor=none;align=left;verticalAlign=top;spacingLeft=4;spacingRight=4;overflow=hidden;rotatable=0;points=[[0,0.5],[1,0.5]];portConstraint=eastwest;" vertex="1" parent="-2eOYRBdpRBfS1CrOmSz-8">
          <mxGeometry y="52" width="140" height="26" as="geometry" />
        </mxCell>
        <mxCell id="-2eOYRBdpRBfS1CrOmSz-12" value="User_Role" style="swimlane;fontStyle=0;childLayout=stackLayout;horizontal=1;startSize=26;fillColor=none;horizontalStack=0;resizeParent=1;resizeParentMax=0;resizeLast=0;collapsible=1;marginBottom=0;" vertex="1" parent="WIyWlLk6GJQsqaUBKTNV-1">
          <mxGeometry x="74" y="180" width="140" height="78" as="geometry" />
        </mxCell>
        <mxCell id="-2eOYRBdpRBfS1CrOmSz-13" value="+ userId: uuid" style="text;strokeColor=none;fillColor=none;align=left;verticalAlign=top;spacingLeft=4;spacingRight=4;overflow=hidden;rotatable=0;points=[[0,0.5],[1,0.5]];portConstraint=eastwest;" vertex="1" parent="-2eOYRBdpRBfS1CrOmSz-12">
          <mxGeometry y="26" width="140" height="26" as="geometry" />
        </mxCell>
        <mxCell id="-2eOYRBdpRBfS1CrOmSz-14" value="+ roleId: uuid" style="text;strokeColor=none;fillColor=none;align=left;verticalAlign=top;spacingLeft=4;spacingRight=4;overflow=hidden;rotatable=0;points=[[0,0.5],[1,0.5]];portConstraint=eastwest;" vertex="1" parent="-2eOYRBdpRBfS1CrOmSz-12">
          <mxGeometry y="52" width="140" height="26" as="geometry" />
        </mxCell>
        <mxCell id="-2eOYRBdpRBfS1CrOmSz-16" value="" style="edgeStyle=orthogonalEdgeStyle;rounded=0;orthogonalLoop=1;jettySize=auto;html=1;entryX=0;entryY=0.5;entryDx=0;entryDy=0;" edge="1" parent="WIyWlLk6GJQsqaUBKTNV-1" source="-2eOYRBdpRBfS1CrOmSz-1" target="-2eOYRBdpRBfS1CrOmSz-13">
          <mxGeometry relative="1" as="geometry" />
        </mxCell>
        <mxCell id="-2eOYRBdpRBfS1CrOmSz-17" style="edgeStyle=orthogonalEdgeStyle;rounded=0;orthogonalLoop=1;jettySize=auto;html=1;entryX=0;entryY=0.5;entryDx=0;entryDy=0;" edge="1" parent="WIyWlLk6GJQsqaUBKTNV-1" source="-2eOYRBdpRBfS1CrOmSz-14" target="-2eOYRBdpRBfS1CrOmSz-5">
          <mxGeometry relative="1" as="geometry" />
        </mxCell>
        <mxCell id="-2eOYRBdpRBfS1CrOmSz-18" value="Role_Permision" style="swimlane;fontStyle=0;childLayout=stackLayout;horizontal=1;startSize=26;fillColor=none;horizontalStack=0;resizeParent=1;resizeParentMax=0;resizeLast=0;collapsible=1;marginBottom=0;" vertex="1" parent="WIyWlLk6GJQsqaUBKTNV-1">
          <mxGeometry x="294" y="296" width="140" height="78" as="geometry" />
        </mxCell>
        <mxCell id="-2eOYRBdpRBfS1CrOmSz-19" value="+ roleId: uuid" style="text;strokeColor=none;fillColor=none;align=left;verticalAlign=top;spacingLeft=4;spacingRight=4;overflow=hidden;rotatable=0;points=[[0,0.5],[1,0.5]];portConstraint=eastwest;" vertex="1" parent="-2eOYRBdpRBfS1CrOmSz-18">
          <mxGeometry y="26" width="140" height="26" as="geometry" />
        </mxCell>
        <mxCell id="-2eOYRBdpRBfS1CrOmSz-20" value="+ permisionId: uuid" style="text;strokeColor=none;fillColor=none;align=left;verticalAlign=top;spacingLeft=4;spacingRight=4;overflow=hidden;rotatable=0;points=[[0,0.5],[1,0.5]];portConstraint=eastwest;" vertex="1" parent="-2eOYRBdpRBfS1CrOmSz-18">
          <mxGeometry y="52" width="140" height="26" as="geometry" />
        </mxCell>
        <mxCell id="-2eOYRBdpRBfS1CrOmSz-22" style="edgeStyle=orthogonalEdgeStyle;rounded=0;orthogonalLoop=1;jettySize=auto;html=1;entryX=1;entryY=0.5;entryDx=0;entryDy=0;" edge="1" parent="WIyWlLk6GJQsqaUBKTNV-1" source="-2eOYRBdpRBfS1CrOmSz-5" target="-2eOYRBdpRBfS1CrOmSz-19">
          <mxGeometry relative="1" as="geometry" />
        </mxCell>
        <mxCell id="-2eOYRBdpRBfS1CrOmSz-24" style="edgeStyle=orthogonalEdgeStyle;rounded=0;orthogonalLoop=1;jettySize=auto;html=1;entryX=0;entryY=0.5;entryDx=0;entryDy=0;" edge="1" parent="WIyWlLk6GJQsqaUBKTNV-1" source="-2eOYRBdpRBfS1CrOmSz-20" target="-2eOYRBdpRBfS1CrOmSz-9">
          <mxGeometry relative="1" as="geometry" />
        </mxCell>
        <mxCell id="-2eOYRBdpRBfS1CrOmSz-25" value="Tech" style="swimlane;fontStyle=0;childLayout=stackLayout;horizontal=1;startSize=26;fillColor=none;horizontalStack=0;resizeParent=1;resizeParentMax=0;resizeLast=0;collapsible=1;marginBottom=0;" vertex="1" parent="WIyWlLk6GJQsqaUBKTNV-1">
          <mxGeometry x="-326" y="270" width="140" height="120" as="geometry" />
        </mxCell>
        <mxCell id="-2eOYRBdpRBfS1CrOmSz-26" value="+ id: uuid" style="text;strokeColor=none;fillColor=none;align=left;verticalAlign=top;spacingLeft=4;spacingRight=4;overflow=hidden;rotatable=0;points=[[0,0.5],[1,0.5]];portConstraint=eastwest;" vertex="1" parent="-2eOYRBdpRBfS1CrOmSz-25">
          <mxGeometry y="26" width="140" height="26" as="geometry" />
        </mxCell>
        <mxCell id="-2eOYRBdpRBfS1CrOmSz-27" value="+ name: String&#xa;&#xa;+ status: Boolean" style="text;strokeColor=none;fillColor=none;align=left;verticalAlign=top;spacingLeft=4;spacingRight=4;overflow=hidden;rotatable=0;points=[[0,0.5],[1,0.5]];portConstraint=eastwest;" vertex="1" parent="-2eOYRBdpRBfS1CrOmSz-25">
          <mxGeometry y="52" width="140" height="68" as="geometry" />
        </mxCell>
        <mxCell id="-2eOYRBdpRBfS1CrOmSz-29" value="User_Tech" style="swimlane;fontStyle=0;childLayout=stackLayout;horizontal=1;startSize=26;fillColor=none;horizontalStack=0;resizeParent=1;resizeParentMax=0;resizeLast=0;collapsible=1;marginBottom=0;" vertex="1" parent="WIyWlLk6GJQsqaUBKTNV-1">
          <mxGeometry x="-316" y="80" width="140" height="78" as="geometry" />
        </mxCell>
        <mxCell id="-2eOYRBdpRBfS1CrOmSz-30" value="+ userId: uuid" style="text;strokeColor=none;fillColor=none;align=left;verticalAlign=top;spacingLeft=4;spacingRight=4;overflow=hidden;rotatable=0;points=[[0,0.5],[1,0.5]];portConstraint=eastwest;" vertex="1" parent="-2eOYRBdpRBfS1CrOmSz-29">
          <mxGeometry y="26" width="140" height="26" as="geometry" />
        </mxCell>
        <mxCell id="-2eOYRBdpRBfS1CrOmSz-31" value="+ techId: uuid" style="text;strokeColor=none;fillColor=none;align=left;verticalAlign=top;spacingLeft=4;spacingRight=4;overflow=hidden;rotatable=0;points=[[0,0.5],[1,0.5]];portConstraint=eastwest;" vertex="1" parent="-2eOYRBdpRBfS1CrOmSz-29">
          <mxGeometry y="52" width="140" height="26" as="geometry" />
        </mxCell>
        <mxCell id="-2eOYRBdpRBfS1CrOmSz-36" style="edgeStyle=orthogonalEdgeStyle;rounded=0;orthogonalLoop=1;jettySize=auto;html=1;entryX=1;entryY=0.5;entryDx=0;entryDy=0;" edge="1" parent="WIyWlLk6GJQsqaUBKTNV-1" source="-2eOYRBdpRBfS1CrOmSz-1" target="-2eOYRBdpRBfS1CrOmSz-30">
          <mxGeometry relative="1" as="geometry" />
        </mxCell>
        <mxCell id="-2eOYRBdpRBfS1CrOmSz-47" value="Project" style="swimlane;fontStyle=0;childLayout=stackLayout;horizontal=1;startSize=26;fillColor=none;horizontalStack=0;resizeParent=1;resizeParentMax=0;resizeLast=0;collapsible=1;marginBottom=0;" vertex="1" parent="WIyWlLk6GJQsqaUBKTNV-1">
          <mxGeometry x="-110" y="550" width="140" height="250" as="geometry" />
        </mxCell>
        <mxCell id="-2eOYRBdpRBfS1CrOmSz-48" value="+ id: uuid" style="text;strokeColor=none;fillColor=none;align=left;verticalAlign=top;spacingLeft=4;spacingRight=4;overflow=hidden;rotatable=0;points=[[0,0.5],[1,0.5]];portConstraint=eastwest;" vertex="1" parent="-2eOYRBdpRBfS1CrOmSz-47">
          <mxGeometry y="26" width="140" height="26" as="geometry" />
        </mxCell>
        <mxCell id="-2eOYRBdpRBfS1CrOmSz-49" value="+ name: String" style="text;strokeColor=none;fillColor=none;align=left;verticalAlign=top;spacingLeft=4;spacingRight=4;overflow=hidden;rotatable=0;points=[[0,0.5],[1,0.5]];portConstraint=eastwest;" vertex="1" parent="-2eOYRBdpRBfS1CrOmSz-47">
          <mxGeometry y="52" width="140" height="26" as="geometry" />
        </mxCell>
        <mxCell id="-2eOYRBdpRBfS1CrOmSz-50" value="+ description: String&#xa;&#xa;+ projectTypeId: uuid&#xa;&#xa;+ projectStatusId: uuid&#xa;&#xa;+ customerId: uuid&#xa;&#xa;+ startDate: Date&#xa;&#xa;+ endDate: Date" style="text;strokeColor=none;fillColor=none;align=left;verticalAlign=top;spacingLeft=4;spacingRight=4;overflow=hidden;rotatable=0;points=[[0,0.5],[1,0.5]];portConstraint=eastwest;" vertex="1" parent="-2eOYRBdpRBfS1CrOmSz-47">
          <mxGeometry y="78" width="140" height="172" as="geometry" />
        </mxCell>
        <mxCell id="-2eOYRBdpRBfS1CrOmSz-52" value="Task" style="swimlane;fontStyle=0;childLayout=stackLayout;horizontal=1;startSize=26;fillColor=none;horizontalStack=0;resizeParent=1;resizeParentMax=0;resizeLast=0;collapsible=1;marginBottom=0;" vertex="1" parent="WIyWlLk6GJQsqaUBKTNV-1">
          <mxGeometry x="-110" y="890" width="140" height="200" as="geometry" />
        </mxCell>
        <mxCell id="-2eOYRBdpRBfS1CrOmSz-53" value="+ id: uuid" style="text;strokeColor=none;fillColor=none;align=left;verticalAlign=top;spacingLeft=4;spacingRight=4;overflow=hidden;rotatable=0;points=[[0,0.5],[1,0.5]];portConstraint=eastwest;" vertex="1" parent="-2eOYRBdpRBfS1CrOmSz-52">
          <mxGeometry y="26" width="140" height="26" as="geometry" />
        </mxCell>
        <mxCell id="-2eOYRBdpRBfS1CrOmSz-54" value="+ name: String" style="text;strokeColor=none;fillColor=none;align=left;verticalAlign=top;spacingLeft=4;spacingRight=4;overflow=hidden;rotatable=0;points=[[0,0.5],[1,0.5]];portConstraint=eastwest;" vertex="1" parent="-2eOYRBdpRBfS1CrOmSz-52">
          <mxGeometry y="52" width="140" height="26" as="geometry" />
        </mxCell>
        <mxCell id="-2eOYRBdpRBfS1CrOmSz-55" value="+ description: String&#xa;&#xa;+ projectId: uuid&#xa;&#xa;+ startDate: Date&#xa;&#xa;+ endDate: Date&#xa;" style="text;strokeColor=none;fillColor=none;align=left;verticalAlign=top;spacingLeft=4;spacingRight=4;overflow=hidden;rotatable=0;points=[[0,0.5],[1,0.5]];portConstraint=eastwest;" vertex="1" parent="-2eOYRBdpRBfS1CrOmSz-52">
          <mxGeometry y="78" width="140" height="122" as="geometry" />
        </mxCell>
        <mxCell id="-2eOYRBdpRBfS1CrOmSz-56" value="Unit" style="swimlane;fontStyle=0;childLayout=stackLayout;horizontal=1;startSize=26;fillColor=none;horizontalStack=0;resizeParent=1;resizeParentMax=0;resizeLast=0;collapsible=1;marginBottom=0;" vertex="1" parent="WIyWlLk6GJQsqaUBKTNV-1">
          <mxGeometry x="299" y="561" width="180" height="210" as="geometry" />
        </mxCell>
        <mxCell id="-2eOYRBdpRBfS1CrOmSz-57" value="+ id: uuid&#xa;&#xa;&#xa;&#xa;&#xa;&#xa;&#xa;&#xa;&#xa;&#xa;" style="text;strokeColor=none;fillColor=none;align=left;verticalAlign=top;spacingLeft=4;spacingRight=4;overflow=hidden;rotatable=0;points=[[0,0.5],[1,0.5]];portConstraint=eastwest;" vertex="1" parent="-2eOYRBdpRBfS1CrOmSz-56">
          <mxGeometry y="26" width="180" height="26" as="geometry" />
        </mxCell>
        <mxCell id="-2eOYRBdpRBfS1CrOmSz-59" value="+ name: String&#xa;&#xa;+ description: String&#xa;&#xa;+ managerId: uuid&#xa;&#xa;+ employee: [] &#xa;&#xa;+ project: []&#xa;" style="text;strokeColor=none;fillColor=none;align=left;verticalAlign=top;spacingLeft=4;spacingRight=4;overflow=hidden;rotatable=0;points=[[0,0.5],[1,0.5]];portConstraint=eastwest;" vertex="1" parent="-2eOYRBdpRBfS1CrOmSz-56">
          <mxGeometry y="52" width="180" height="158" as="geometry" />
        </mxCell>
        <mxCell id="-2eOYRBdpRBfS1CrOmSz-60" value="ProjectStatus" style="swimlane;fontStyle=0;childLayout=stackLayout;horizontal=1;startSize=26;fillColor=none;horizontalStack=0;resizeParent=1;resizeParentMax=0;resizeLast=0;collapsible=1;marginBottom=0;" vertex="1" parent="WIyWlLk6GJQsqaUBKTNV-1">
          <mxGeometry x="-500" y="860" width="140" height="104" as="geometry" />
        </mxCell>
        <mxCell id="-2eOYRBdpRBfS1CrOmSz-61" value="+ id: uuid" style="text;strokeColor=none;fillColor=none;align=left;verticalAlign=top;spacingLeft=4;spacingRight=4;overflow=hidden;rotatable=0;points=[[0,0.5],[1,0.5]];portConstraint=eastwest;" vertex="1" parent="-2eOYRBdpRBfS1CrOmSz-60">
          <mxGeometry y="26" width="140" height="26" as="geometry" />
        </mxCell>
        <mxCell id="-2eOYRBdpRBfS1CrOmSz-62" value="+ name: String" style="text;strokeColor=none;fillColor=none;align=left;verticalAlign=top;spacingLeft=4;spacingRight=4;overflow=hidden;rotatable=0;points=[[0,0.5],[1,0.5]];portConstraint=eastwest;" vertex="1" parent="-2eOYRBdpRBfS1CrOmSz-60">
          <mxGeometry y="52" width="140" height="26" as="geometry" />
        </mxCell>
        <mxCell id="-2eOYRBdpRBfS1CrOmSz-63" value="+ status: Boolean" style="text;strokeColor=none;fillColor=none;align=left;verticalAlign=top;spacingLeft=4;spacingRight=4;overflow=hidden;rotatable=0;points=[[0,0.5],[1,0.5]];portConstraint=eastwest;" vertex="1" parent="-2eOYRBdpRBfS1CrOmSz-60">
          <mxGeometry y="78" width="140" height="26" as="geometry" />
        </mxCell>
        <mxCell id="-2eOYRBdpRBfS1CrOmSz-64" value="ProjectType" style="swimlane;fontStyle=0;childLayout=stackLayout;horizontal=1;startSize=26;fillColor=none;horizontalStack=0;resizeParent=1;resizeParentMax=0;resizeLast=0;collapsible=1;marginBottom=0;" vertex="1" parent="WIyWlLk6GJQsqaUBKTNV-1">
          <mxGeometry x="250" y="890" width="140" height="104" as="geometry" />
        </mxCell>
        <mxCell id="-2eOYRBdpRBfS1CrOmSz-65" value="+ id: uuid" style="text;strokeColor=none;fillColor=none;align=left;verticalAlign=top;spacingLeft=4;spacingRight=4;overflow=hidden;rotatable=0;points=[[0,0.5],[1,0.5]];portConstraint=eastwest;" vertex="1" parent="-2eOYRBdpRBfS1CrOmSz-64">
          <mxGeometry y="26" width="140" height="26" as="geometry" />
        </mxCell>
        <mxCell id="-2eOYRBdpRBfS1CrOmSz-66" value="+ name: String" style="text;strokeColor=none;fillColor=none;align=left;verticalAlign=top;spacingLeft=4;spacingRight=4;overflow=hidden;rotatable=0;points=[[0,0.5],[1,0.5]];portConstraint=eastwest;" vertex="1" parent="-2eOYRBdpRBfS1CrOmSz-64">
          <mxGeometry y="52" width="140" height="26" as="geometry" />
        </mxCell>
        <mxCell id="-2eOYRBdpRBfS1CrOmSz-67" value="+ status: Boolean" style="text;strokeColor=none;fillColor=none;align=left;verticalAlign=top;spacingLeft=4;spacingRight=4;overflow=hidden;rotatable=0;points=[[0,0.5],[1,0.5]];portConstraint=eastwest;" vertex="1" parent="-2eOYRBdpRBfS1CrOmSz-64">
          <mxGeometry y="78" width="140" height="26" as="geometry" />
        </mxCell>
        <mxCell id="-2eOYRBdpRBfS1CrOmSz-70" value="Project _Tech" style="swimlane;fontStyle=0;childLayout=stackLayout;horizontal=1;startSize=26;fillColor=none;horizontalStack=0;resizeParent=1;resizeParentMax=0;resizeLast=0;collapsible=1;marginBottom=0;" vertex="1" parent="WIyWlLk6GJQsqaUBKTNV-1">
          <mxGeometry x="-310" y="550" width="140" height="78" as="geometry" />
        </mxCell>
        <mxCell id="-2eOYRBdpRBfS1CrOmSz-71" value="+ projectId: uuid" style="text;strokeColor=none;fillColor=none;align=left;verticalAlign=top;spacingLeft=4;spacingRight=4;overflow=hidden;rotatable=0;points=[[0,0.5],[1,0.5]];portConstraint=eastwest;" vertex="1" parent="-2eOYRBdpRBfS1CrOmSz-70">
          <mxGeometry y="26" width="140" height="26" as="geometry" />
        </mxCell>
        <mxCell id="-2eOYRBdpRBfS1CrOmSz-72" value="+ TechId: uuid" style="text;strokeColor=none;fillColor=none;align=left;verticalAlign=top;spacingLeft=4;spacingRight=4;overflow=hidden;rotatable=0;points=[[0,0.5],[1,0.5]];portConstraint=eastwest;" vertex="1" parent="-2eOYRBdpRBfS1CrOmSz-70">
          <mxGeometry y="52" width="140" height="26" as="geometry" />
        </mxCell>
        <mxCell id="-2eOYRBdpRBfS1CrOmSz-74" value="User_Project" style="swimlane;fontStyle=0;childLayout=stackLayout;horizontal=1;startSize=26;fillColor=none;horizontalStack=0;resizeParent=1;resizeParentMax=0;resizeLast=0;collapsible=1;marginBottom=0;" vertex="1" parent="WIyWlLk6GJQsqaUBKTNV-1">
          <mxGeometry x="100" y="462" width="140" height="78" as="geometry" />
        </mxCell>
        <mxCell id="-2eOYRBdpRBfS1CrOmSz-75" value="+ userId: uuid" style="text;strokeColor=none;fillColor=none;align=left;verticalAlign=top;spacingLeft=4;spacingRight=4;overflow=hidden;rotatable=0;points=[[0,0.5],[1,0.5]];portConstraint=eastwest;" vertex="1" parent="-2eOYRBdpRBfS1CrOmSz-74">
          <mxGeometry y="26" width="140" height="26" as="geometry" />
        </mxCell>
        <mxCell id="-2eOYRBdpRBfS1CrOmSz-76" value="+ projectId: uuid" style="text;strokeColor=none;fillColor=none;align=left;verticalAlign=top;spacingLeft=4;spacingRight=4;overflow=hidden;rotatable=0;points=[[0,0.5],[1,0.5]];portConstraint=eastwest;" vertex="1" parent="-2eOYRBdpRBfS1CrOmSz-74">
          <mxGeometry y="52" width="140" height="26" as="geometry" />
        </mxCell>
        <mxCell id="-2eOYRBdpRBfS1CrOmSz-80" style="edgeStyle=none;rounded=0;orthogonalLoop=1;jettySize=auto;html=1;entryX=1;entryY=0.5;entryDx=0;entryDy=0;" edge="1" parent="WIyWlLk6GJQsqaUBKTNV-1" source="-2eOYRBdpRBfS1CrOmSz-48" target="-2eOYRBdpRBfS1CrOmSz-71">
          <mxGeometry relative="1" as="geometry" />
        </mxCell>
        <mxCell id="-2eOYRBdpRBfS1CrOmSz-82" style="edgeStyle=none;rounded=0;orthogonalLoop=1;jettySize=auto;html=1;" edge="1" parent="WIyWlLk6GJQsqaUBKTNV-1" source="-2eOYRBdpRBfS1CrOmSz-26">
          <mxGeometry relative="1" as="geometry">
            <mxPoint x="-320" y="140" as="targetPoint" />
            <Array as="points">
              <mxPoint x="-360" y="309" />
              <mxPoint x="-360" y="140" />
            </Array>
          </mxGeometry>
        </mxCell>
        <mxCell id="-2eOYRBdpRBfS1CrOmSz-87" style="edgeStyle=none;rounded=0;orthogonalLoop=1;jettySize=auto;html=1;entryX=-0.008;entryY=0.788;entryDx=0;entryDy=0;entryPerimeter=0;" edge="1" parent="WIyWlLk6GJQsqaUBKTNV-1" source="-2eOYRBdpRBfS1CrOmSz-26" target="-2eOYRBdpRBfS1CrOmSz-72">
          <mxGeometry relative="1" as="geometry">
            <Array as="points">
              <mxPoint x="-360" y="309" />
              <mxPoint x="-360" y="622" />
            </Array>
          </mxGeometry>
        </mxCell>
        <mxCell id="-2eOYRBdpRBfS1CrOmSz-89" style="edgeStyle=none;rounded=0;orthogonalLoop=1;jettySize=auto;html=1;entryX=0;entryY=0.5;entryDx=0;entryDy=0;" edge="1" parent="WIyWlLk6GJQsqaUBKTNV-1" source="-2eOYRBdpRBfS1CrOmSz-1" target="-2eOYRBdpRBfS1CrOmSz-75">
          <mxGeometry relative="1" as="geometry">
            <Array as="points">
              <mxPoint x="30" y="230" />
            </Array>
          </mxGeometry>
        </mxCell>
        <mxCell id="-2eOYRBdpRBfS1CrOmSz-90" style="edgeStyle=none;rounded=0;orthogonalLoop=1;jettySize=auto;html=1;entryX=0;entryY=0.5;entryDx=0;entryDy=0;exitX=1;exitY=0.5;exitDx=0;exitDy=0;" edge="1" parent="WIyWlLk6GJQsqaUBKTNV-1" source="-2eOYRBdpRBfS1CrOmSz-48" target="-2eOYRBdpRBfS1CrOmSz-76">
          <mxGeometry relative="1" as="geometry" />
        </mxCell>
        <mxCell id="-2eOYRBdpRBfS1CrOmSz-91" style="edgeStyle=none;rounded=0;orthogonalLoop=1;jettySize=auto;html=1;entryX=0;entryY=0.5;entryDx=0;entryDy=0;exitX=1.005;exitY=0.906;exitDx=0;exitDy=0;exitPerimeter=0;" edge="1" parent="WIyWlLk6GJQsqaUBKTNV-1" source="-2eOYRBdpRBfS1CrOmSz-3" target="-2eOYRBdpRBfS1CrOmSz-57">
          <mxGeometry relative="1" as="geometry">
            <Array as="points">
              <mxPoint x="40" y="540" />
            </Array>
          </mxGeometry>
        </mxCell>
      </root>
    </mxGraphModel>
  </diagram>
</mxfile>
